<svg width="22" height="23" viewBox="0 0 22 23" fill="none" xmlns="http://www.w3.org/2000/svg">
<path d="M21 9.5V17.5C21 19.7091 19.2091 21.5 17 21.5H5C2.79086 21.5 1 19.7091 1 17.5V9.5M21 9.5C21 7.29086 19.2091 5.5 17 5.5H5C2.79086 5.5 1 7.29086 1 9.5M21 9.5C21 9.5 17.8374 12.2647 11 12.0811C4.16262 11.8975 1 9.5 1 9.5M7 5.5V4.5C7 2.84315 8.34315 1.5 10 1.5H12C13.6569 1.5 15 2.84315 15 4.5V5.5M7 10.1767V13.1767M15 10.1767V13.1767" stroke="white" stroke-width="1.5" stroke-linecap="round"/>
</svg>
