<svg width="24" height="25" viewBox="0 0 24 25" fill="none" xmlns="http://www.w3.org/2000/svg">
<path d="M5.63281 11.6026C6.4495 9.15258 8.74233 7.5 11.3249 7.5H12.6758C15.2584 7.5 17.5512 9.15258 18.3679 11.6026L19.3679 14.6026C20.663 18.4878 17.7711 22.5 13.6758 22.5H10.3249C6.22957 22.5 3.33775 18.4878 4.63281 14.6026L5.63281 11.6026Z" stroke="white" stroke-width="1.5" stroke-linejoin="round"/>
<path d="M9 18.5C11.2544 19.8147 12.5778 19.8445 15 18.5" stroke="white" stroke-width="1.5" stroke-linecap="round"/>
<path d="M14.0859 7.5L9.91411 7.5L8.51303 5.89296C7.13959 4.31763 8.74185 1.96298 10.7471 2.60985L11.6748 2.90914C11.8861 2.97728 12.1139 2.97728 12.3252 2.90914L13.2529 2.60985C15.2582 1.96298 16.8604 4.31763 15.487 5.89296L14.0859 7.5Z" stroke="white" stroke-width="1.5" stroke-linejoin="round"/>
</svg>
