<svg width="22" height="22" viewBox="0 0 22 22" fill="none" xmlns="http://www.w3.org/2000/svg">
<path opacity="0.4" d="M17.1459 3.79337L14.8382 6.10105C13.6835 5.17734 12.2187 4.625 10.625 4.625C6.89708 4.625 3.875 7.64708 3.875 11.375C3.875 15.1029 6.89708 18.125 10.625 18.125C14.3529 18.125 17.375 15.1029 17.375 11.375C17.375 10.3006 17.124 9.28489 16.6774 8.38322L19.0597 6.00094C20.0507 7.55306 20.625 9.39696 20.625 11.375C20.625 16.8978 16.1478 21.375 10.625 21.375C5.10215 21.375 0.625 16.8978 0.625 11.375C0.625 5.85215 5.10215 1.375 10.625 1.375C13.1165 1.375 15.3951 2.28613 17.1459 3.79337Z" fill="#0F0F0F"/>
<path d="M13.7691 7.17019C12.8927 6.51379 11.8042 6.125 10.625 6.125C7.7255 6.125 5.375 8.4755 5.375 11.375C5.375 14.2745 7.7255 16.625 10.625 16.625C13.5245 16.625 15.875 14.2745 15.875 11.375C15.875 10.7227 15.756 10.0982 15.5386 9.52202L13.3554 11.7053C13.1922 13.0683 12.032 14.125 10.625 14.125C9.10622 14.125 7.875 12.8938 7.875 11.375C7.875 9.85622 9.10622 8.625 10.625 8.625C11.1118 8.625 11.5692 8.75151 11.9658 8.97346L13.7691 7.17019Z" fill="#0F0F0F"/>
<path d="M21.1553 1.90533L11.8626 11.1981C11.8708 11.2559 11.875 11.3149 11.875 11.375C11.875 12.0654 11.3154 12.625 10.625 12.625C9.93464 12.625 9.375 12.0654 9.375 11.375C9.375 10.6846 9.93464 10.125 10.625 10.125C10.6851 10.125 10.7441 10.1292 10.8019 10.1374L20.0947 0.84467C20.3876 0.551777 20.8624 0.551777 21.1553 0.84467C21.4482 1.13756 21.4482 1.61244 21.1553 1.90533Z" fill="#0F0F0F"/>
</svg>
