<svg width="54" height="54" viewBox="0 0 54 54" fill="none" xmlns="http://www.w3.org/2000/svg">
<path fill-rule="evenodd" clip-rule="evenodd" d="M14.3438 5.90624C14.3438 4.04228 15.8548 2.53124 17.7188 2.53124C19.5827 2.53124 21.0938 4.04228 21.0938 5.90624C21.0938 7.7702 19.5827 9.28124 17.7188 9.28124C15.8548 9.28124 14.3438 7.7702 14.3438 5.90624Z" fill="#005054"/>
<path d="M35.787 0.445327C36.9113 0.0278125 38.2362 0.450664 38.8215 1.57755C41.1656 6.09098 40.953 9.88847 39.1326 13.3383C38.7026 14.1532 38.2247 14.7958 37.7272 15.3218C43.6987 19.9959 47.802 27.6375 48.2147 35.2305C48.8305 35.3331 49.4105 35.6461 49.8342 36.1641L51.3385 38.0036C52.2869 39.1634 52.1187 41.0213 50.654 41.7925C49.6036 42.3455 48.4434 42.7948 47.1995 43.042C45.4415 47.5921 40.2132 49.5608 35.1881 49.5736L8.91627 49.6405C5.81125 49.6485 3.69597 46.5006 4.88418 43.6402L15.0445 19.1813C16.873 14.7795 20.3624 10.8049 25.1405 10.7651C27.0522 10.7492 28.9156 11.0397 30.7014 11.5879C31.0367 11.3403 31.3842 11.0545 31.7485 10.7107C33.12 9.41638 33.4449 8.2599 33.4013 7.27256C33.3547 6.21766 32.8884 5.24006 32.4174 4.29107C31.7838 3.0145 32.4906 1.66944 33.6992 1.22063L35.787 0.445327Z" fill="#005054"/>
<path d="M52.3125 25.3125C52.3125 26.2445 51.557 27 50.625 27C49.693 27 48.9375 26.2445 48.9375 25.3125C48.9375 24.3805 49.693 23.625 50.625 23.625C51.557 23.625 52.3125 24.3805 52.3125 25.3125Z" fill="#005054"/>
<path d="M5.45276 15.7741C5.77428 14.992 6.88197 14.992 7.20349 15.7741L7.73354 17.0634C7.82964 17.2972 8.01527 17.4829 8.24905 17.579L9.53841 18.109C10.3205 18.4305 10.3205 19.5382 9.53841 19.8597L8.24905 20.3898C8.01527 20.4859 7.82964 20.6715 7.73354 20.9053L7.20349 22.1946C6.88197 22.9768 5.77428 22.9768 5.45276 22.1946L4.92271 20.9053C4.82661 20.6715 4.64098 20.4859 4.4072 20.3898L3.11784 19.8597C2.33572 19.5382 2.33572 18.4305 3.11784 18.109L4.4072 17.579C4.64098 17.4829 4.82661 17.2972 4.92271 17.0634L5.45276 15.7741Z" fill="#005054"/>
<path d="M46.7826 10.7209C47.1092 9.92635 48.2345 9.92635 48.5612 10.7209L48.8362 11.3901C48.9339 11.6276 49.1224 11.8161 49.3599 11.9138L50.0291 12.1888C50.8236 12.5155 50.8236 13.6408 50.0291 13.9674L49.3599 14.2425C49.1224 14.3401 48.9339 14.5287 48.8362 14.7662L48.5612 15.4353C48.2345 16.2299 47.1092 16.2299 46.7826 15.4353L46.5075 14.7662C46.4099 14.5287 46.2213 14.3401 45.9838 14.2425L45.3147 13.9674C44.5201 13.6408 44.5201 12.5155 45.3147 12.1888L45.9838 11.9138C46.2213 11.8161 46.4099 11.6276 46.5075 11.3901L46.7826 10.7209Z" fill="#005054"/>
<path d="M12.1037 30.6593L16.6028 19.8286C16.8104 19.329 17.0369 18.8439 17.2812 18.3769C15.7168 23.3974 17.1459 30.5116 21.4902 36.8978C26.016 43.5507 32.4479 47.5647 37.8459 47.678C36.9877 47.8141 36.0948 47.8838 35.1837 47.8861L21.5432 47.9208C11.7716 42.7132 11.2779 34.0457 12.1037 30.6593Z" fill="#7DF9FF"/>
<path d="M10.2594 35.099L6.44246 44.2876C5.71948 46.028 7.00451 47.9579 8.91185 47.953L18.3118 47.9291C12.7704 44.096 10.731 39.0826 10.2594 35.099Z" fill="#7DF9FF"/>
<path d="M16.0312 5.90628C16.0312 4.97429 16.7868 4.21878 17.7188 4.21878C18.6507 4.21878 19.4063 4.97429 19.4063 5.90628C19.4063 6.83826 18.6507 7.59378 17.7188 7.59378C16.7868 7.59378 16.0312 6.83826 16.0312 5.90628Z" fill="#F2FEFF"/>
<path d="M23.625 32.9063C23.625 31.9743 24.3805 31.2188 25.3125 31.2188C26.2445 31.2188 27 31.9743 27 32.9063C27 33.8383 26.2445 34.5938 25.3125 34.5938C24.3805 34.5938 23.625 33.8383 23.625 32.9063Z" fill="#F2FEFF"/>
<path d="M36.3744 2.02731C36.7673 1.8814 37.1632 2.04597 37.3239 2.35537C39.4242 6.39942 39.1911 9.61157 37.6402 12.5508C36.6883 14.3546 35.6321 14.9934 34.3896 15.7449C33.946 16.0132 33.4787 16.2958 32.9839 16.651C32.0573 17.316 31.1594 18.1861 30.3884 19.6278C29.6276 21.0504 29.0084 22.9953 28.5723 25.7884C28.4677 26.4583 27.7462 26.777 27.2351 26.4817L24.7878 25.068C24.4694 24.8841 24.3117 24.5198 24.3905 24.1741C25.701 18.4212 26.8583 16.4163 28.0209 15.348C28.5553 14.857 29.1123 14.539 29.8207 14.1346C29.9048 14.0866 29.991 14.0374 30.0796 13.9865C30.9038 13.5131 31.8472 12.938 32.9068 11.938C34.595 10.3448 35.1547 8.72776 35.0872 7.19813C35.023 5.74487 34.3895 4.46869 33.9371 3.55734L33.9289 3.54084C33.8509 3.38353 33.8588 3.24507 33.9099 3.12999C33.9642 3.00766 34.0845 2.87766 34.2867 2.8026L36.3744 2.02731Z" fill="#F2FEFF"/>
<path d="M35.8138 24.2209C36.1405 23.4264 37.2658 23.4264 37.5924 24.2209L37.8675 24.8901C37.9651 25.1276 38.1537 25.3162 38.3912 25.4138L39.0603 25.6889C39.8549 26.0155 39.8549 27.1408 39.0603 27.4674L38.3912 27.7425C38.1537 27.8401 37.9651 28.0287 37.8675 28.2662L37.5924 28.9354C37.2658 29.7299 36.1405 29.7299 35.8138 28.9354L35.5388 28.2662C35.4411 28.0287 35.2526 27.8401 35.0151 27.7425L34.3459 27.4674C33.5514 27.1408 33.5514 26.0155 34.3459 25.6889L35.0151 25.4138C35.2526 25.3162 35.4411 25.1276 35.5388 24.8901L35.8138 24.2209Z" fill="#F2FEFF"/>
<path d="M31.9686 37.3446C32.8952 36.7723 34.2765 36.0352 35.744 35.6441C37.221 35.2506 38.6542 35.2402 39.8127 35.9325C41.2089 36.7668 42.2969 37.3852 43.4508 37.5878C44.6508 37.7986 45.8182 37.5489 47.3671 36.9537C47.8011 36.7869 48.2658 36.912 48.5279 37.2324L50.0322 39.0719C50.4062 39.5293 50.2517 40.0972 49.8678 40.2993C47.0787 41.7679 43.555 42.3664 39.7024 39.798C38.7736 39.1788 37.7275 39.1383 36.7918 39.3329C35.864 39.5259 34.972 39.9623 34.2399 40.4058C33.5129 40.8463 32.631 40.5462 32.3848 39.9684L31.6962 38.3515C31.5213 37.941 31.6637 37.5329 31.9686 37.3446Z" fill="#F2FEFF"/>
</svg>
