<svg width="34" height="45" viewBox="0 0 34 45" fill="none" xmlns="http://www.w3.org/2000/svg">
  <path 
    opacity="0.4" 
    d="M0 22.8436C0 18.1492 3.80558 14.3436 8.5 14.3436H25.5C30.1944 14.3436 34 18.1492 34 22.8436V35.5936C34 40.288 30.1944 44.0936 25.5 44.0936H8.5C3.80558 44.0936 0 40.288 0 35.5936V22.8436Z" 
    fill="#141F1F" 
  />
  <path 
    fillRule="evenodd" 
    clipRule="evenodd" 
    d="M17 25.4999C17.8802 25.4999 18.5938 26.2134 18.5938 27.0936V31.3436C18.5938 32.2238 17.8802 32.9374 17 32.9374C16.1198 32.9374 15.4062 32.2238 15.4062 31.3436V27.0936C15.4062 26.2134 16.1198 25.4999 17 25.4999Z" 
    fill="#141F1F" 
  />
  <path 
    fillRule="evenodd" 
    clipRule="evenodd" 
    d="M10.0938 10.0936C10.0938 6.27941 13.1858 3.18738 17 3.18738C20.8142 3.18738 23.9062 6.27941 23.9062 10.0936V14.3436H27.0938V10.0936C27.0938 4.519 22.5746 -0.00012207 17 -0.00012207C11.4254 -0.00012207 6.90625 4.519 6.90625 10.0936V14.3436H10.0938V10.0936Z" 
    fill="#141F1F" 
  />
</svg>
