<svg width="34" height="43" viewBox="0 0 34 43" fill="none" xmlns="http://www.w3.org/2000/svg">
  <path 
    opacity="0.4" 
    d="M23.375 -0.00012207H6.375C2.85418 -0.00012207 0 2.85406 0 6.37488V36.1249C0 39.6457 2.85419 42.4999 6.375 42.4999H23.375C26.8958 42.4999 29.75 39.6457 29.75 36.1249V6.37488C29.75 2.85406 26.8958 -0.00012207 23.375 -0.00012207Z" 
    fill="#141F1F" 
  />
  <path 
    fillRule="evenodd" 
    clipRule="evenodd" 
    d="M25.5 24.9686C24.033 24.9686 22.8438 26.1579 22.8438 27.6249V31.8749C22.8438 32.7551 22.1302 33.4686 21.25 33.4686C20.3698 33.4686 19.6562 32.7551 19.6562 31.8749V27.6249C19.6562 24.3975 22.2726 21.7811 25.5 21.7811C28.7274 21.7811 31.3438 24.3975 31.3438 27.6249V31.8749C31.3438 32.7551 30.6302 33.4686 29.75 33.4686C28.8698 33.4686 28.1562 32.7551 28.1562 31.8749V27.6249C28.1562 26.1579 26.967 24.9686 25.5 24.9686Z" 
    fill="#141F1F" 
  />
  <path 
    d="M29.75 29.7499H21.25C18.9028 29.7499 17 31.6527 17 33.9999V38.2499C17 40.5971 18.9028 42.4999 21.25 42.4999H29.75C32.0972 42.4999 34 40.5971 34 38.2499V33.9999C34 31.6527 32.0972 29.7499 29.75 29.7499Z" 
    fill="#141F1F" 
  />
</svg>

