<svg width="42" height="45" viewBox="0 0 42 45" fill="none" xmlns="http://www.w3.org/2000/svg">
  <path 
    opacity="0.4" 
    d="M17.1723 0.809586L5.43417 6.02654C2.0389 7.53555 -0.201689 10.9149 0.0143634 14.6241C0.859016 29.1252 5.10549 35.5092 16.1398 42.9795C19.0629 44.9585 22.916 44.9633 25.837 42.9812C36.9052 35.4702 40.9997 28.9959 41.9186 14.6743C42.1581 10.9406 39.9139 7.52539 36.495 6.00586L24.8034 0.809584C22.3742 -0.270025 19.6014 -0.270024 17.1723 0.809586Z" 
    fill="#141F1F" 
  />
  <path 
    fillRule="evenodd" 
    clipRule="evenodd" 
    d="M29.1936 16.5773C29.9257 17.218 29.9999 18.3308 29.3593 19.0629L22.6189 26.7663C21.1705 28.4216 18.6756 28.6432 16.9581 27.2692L12.8413 23.9758C12.0817 23.3681 11.9585 22.2596 12.5662 21.4999C13.174 20.7402 14.2825 20.6171 15.0421 21.2248L19.1589 24.5182C19.4043 24.7145 19.7607 24.6829 19.9676 24.4464L26.708 16.743C27.3486 16.0109 28.4615 15.9367 29.1936 16.5773Z" 
    fill="#141F1F" 
  />
</svg>
